<svg width="16" height="16" viewBox="0 0 16 16" fill="none" xmlns="http://www.w3.org/2000/svg"><path fill-rule="evenodd" clip-rule="evenodd" d="M7.293 15.707a1 1 0 1 0 1.414-1.414L3.414 9H15a1 1 0 1 0 0-2H3.414l5.293-5.293A1 1 0 0 0 7.293.293l-7 7a1 1 0 0 0 0 1.414l7 7z" fill="#7CE74F"/><path fill-rule="evenodd" clip-rule="evenodd" d="M7.293 15.707a1 1 0 1 0 1.414-1.414L3.414 9H15a1 1 0 1 0 0-2H3.414l5.293-5.293A1 1 0 0 0 7.293.293l-7 7a1 1 0 0 0 0 1.414l7 7z" fill="url(#a)"/><defs><linearGradient id="a" x1="18.796" y1="12" x2="7.997" gradientUnits="userSpaceOnUse"><stop stop-color="#17C1FF"/><stop offset="1" stop-color="#17C1FF" stop-opacity=".47"/></linearGradient></defs></svg>