<svg width="16" height="16" viewBox="0 0 16 16" fill="none" xmlns="http://www.w3.org/2000/svg"><path fill-rule="evenodd" clip-rule="evenodd" d="M8.707.293a1 1 0 0 0-1.414 1.414L12.586 7H1a1 1 0 0 0 0 2h11.586l-5.293 5.293a1 1 0 1 0 1.414 1.414l7-7a1 1 0 0 0 0-1.414l-7-7z" fill="#7CE74F"/><path fill-rule="evenodd" clip-rule="evenodd" d="M8.707.293a1 1 0 0 0-1.414 1.414L12.586 7H1a1 1 0 0 0 0 2h11.586l-5.293 5.293a1 1 0 1 0 1.414 1.414l7-7a1 1 0 0 0 0-1.414l-7-7z" fill="url(#a)"/><defs><linearGradient id="a" x1="-2.796" y1="4" x2="8.003" y2="16" gradientUnits="userSpaceOnUse"><stop stop-color="#17C1FF"/><stop offset="1" stop-color="#17C1FF" stop-opacity=".47"/></linearGradient></defs></svg>