<svg width="100" height="100" viewBox="0 0 100 100" fill="none" xmlns="http://www.w3.org/2000/svg"><path d="M4.132 57.006a18.865 18.865 0 0 1 8.809-6.087 18.743 18.743 0 0 1-.441-4.044c0-10.339 8.411-18.75 18.75-18.75 1.428 0 2.843.16 4.222.478 3.808-6.976 11.212-11.416 19.215-11.416 11.552 0 21.041 9.002 21.823 20.358C89.594 38.329 100 49.222 100 62.5c0 13.785-11.215 25-25 25H18.75C8.411 87.5 0 79.089 0 68.75c0-4.26 1.468-8.43 4.132-11.744z" fill="#40D3F7"/><path d="M15.625 82.813h56.25c13.785 0 25-11.215 25-25 0-4.104-.995-7.98-2.755-11.4A24.888 24.888 0 0 1 100 62.5c0 13.785-11.215 25-25 25H18.75c-7.51 0-14.003-4.44-16.993-10.832 3.432 3.773 8.378 6.145 13.868 6.145z" fill="#00C4F5"/><path d="M32.813 62.305h32.812a1.563 1.563 0 0 0 0-3.125H32.812a1.563 1.563 0 0 0 0 3.125z" fill="#F9F8F6"/><path d="M59.375 65.43c.863 0 1.563-.7 1.563-1.563v-6.25a1.563 1.563 0 0 0-3.126 0v6.25c0 .863.7 1.563 1.563 1.563z" fill="#E7E5DA"/><path d="M1.564 33.236c.82 0 1.51-.64 1.558-1.47a17.16 17.16 0 0 1 5.003-11.14 17.16 17.16 0 0 1 11.14-5.004 1.563 1.563 0 0 0-.183-3.12 20.283 20.283 0 0 0-13.166 5.914A20.283 20.283 0 0 0 .003 31.582a1.562 1.562 0 0 0 1.56 1.654z" fill="#D4E78A"/><path d="M7.831 33.237c.801 0 1.483-.613 1.555-1.426a10.946 10.946 0 0 1 3.159-6.766 10.946 10.946 0 0 1 6.766-3.16 1.563 1.563 0 0 0-.274-3.112 14.074 14.074 0 0 0-8.702 4.062 14.076 14.076 0 0 0-4.062 8.701 1.563 1.563 0 0 0 1.558 1.7z" fill="#BFDC4F"/><path d="M14.13 33.237c.742 0 1.401-.532 1.536-1.288a4.656 4.656 0 0 1 1.298-2.485 4.66 4.66 0 0 1 2.485-1.298 1.562 1.562 0 1 0-.55-3.076 7.765 7.765 0 0 0-4.145 2.165 7.766 7.766 0 0 0-2.164 4.144 1.562 1.562 0 0 0 1.54 1.838z" fill="#AAD015"/><path d="M98.436 33.237l.093-.003a1.562 1.562 0 0 0 1.468-1.652 20.283 20.283 0 0 0-5.913-13.166 20.284 20.284 0 0 0-13.166-5.913 1.563 1.563 0 0 0-.183 3.12 17.16 17.16 0 0 1 11.14 5.003 17.162 17.162 0 0 1 5.003 11.14c.048.83.737 1.47 1.558 1.47z" fill="#D4E78A"/><path d="M92.169 33.237a1.563 1.563 0 0 0 1.558-1.7 14.077 14.077 0 0 0-4.062-8.702 14.076 14.076 0 0 0-8.702-4.062 1.563 1.563 0 0 0-.275 3.113 10.944 10.944 0 0 1 6.767 3.159 10.944 10.944 0 0 1 3.16 6.766 1.563 1.563 0 0 0 1.554 1.426z" fill="#BFDC4F"/><path d="M85.87 33.237a1.562 1.562 0 0 0 1.54-1.837 7.764 7.764 0 0 0-2.165-4.146 7.767 7.767 0 0 0-4.144-2.164 1.563 1.563 0 0 0-.55 3.076 4.656 4.656 0 0 1 2.485 1.298 4.66 4.66 0 0 1 1.298 2.485 1.562 1.562 0 0 0 1.536 1.288z" fill="#AAD015"/></svg>