<svg width="100" height="100" viewBox="0 0 100 100" fill="none" xmlns="http://www.w3.org/2000/svg"><g clip-path="url(#a)"><path d="M68.132 16.812H7.922C3.554 16.812 0 20.375 0 24.744v42.78c0 4.369 3.554 7.914 7.922 7.914h8.933L35.428 90.92c1.014.845 2.599.1 2.599-1.213v-14.27h30.105c4.368 0 7.922-3.544 7.922-7.912V24.744c0-4.368-3.554-7.932-7.922-7.932z" fill="#D4E78A"/><path d="M21.609 72.269H11.091a6.33 6.33 0 0 1-6.338-6.329V21.575c0-1.7.537-3.273 1.448-4.563C2.658 17.801 0 20.967 0 24.744v42.78c0 4.37 3.554 7.914 7.922 7.914h8.933L35.428 90.92c1.014.845 2.599.1 2.599-1.213V85.96L21.609 72.27z" fill="#BFDC4F"/><path d="M26.936 34.242h-7.922a1.584 1.584 0 0 1 0-3.169h7.922a1.584 1.584 0 0 1 0 3.169zm20.598 0h-14.26a1.584 1.584 0 0 1 0-3.169h14.26a1.584 1.584 0 0 1 0 3.169z" fill="#AAD015"/><path d="M33.274 46.917h-14.26a1.584 1.584 0 1 1 0-3.169h14.26a1.584 1.584 0 0 1 0 3.169zm-7.923 7.923h-6.337a1.584 1.584 0 1 1 0-3.17h6.338a1.584 1.584 0 1 1 0 3.17zm19.014 0H31.689a1.584 1.584 0 1 1 0-3.17h12.676a1.584 1.584 0 0 1 0 3.17zm-1.585 7.922H19.015a1.584 1.584 0 0 1 0-3.169H42.78a1.584 1.584 0 0 1 0 3.169zm3.17-15.845h-6.34a1.584 1.584 0 1 1 0-3.169h6.338a1.584 1.584 0 0 1 0 3.169z" fill="#EAF3C4"/><path d="M99.072 14.131L94.59 9.649a3.169 3.169 0 0 0-4.481 0l-4.221 4.221-32.514 32.514a1.582 1.582 0 0 0-.359.552l-5.16 13.42a.396.396 0 0 0 .511.511l13.42-5.161c.206-.08.394-.202.55-.358l32.46-32.46.915-.914 3.36-3.362a3.17 3.17 0 0 0 0-4.481z" fill="#F3F2ED"/><path d="M86.747 13.011l-.86.86-32.513 32.514c-.08.08-.151.168-.212.263l8.911 8.912c.095-.061.184-.132.264-.212L95.71 21.974l-8.964-8.963z" fill="#FFE340"/><path d="M91.229 17.492L57.618 51.103l4.455 4.456c.095-.06.184-.132.264-.212l33.374-33.374-4.482-4.481z" fill="#FF66B2"/><path d="M48.366 60.867l7.26-2.792-4.98-4.98-2.792 7.26a.396.396 0 0 0 .512.512z" fill="#6C8181"/></g><defs><clipPath id="a"><path fill="#fff" d="M0 0h100v100H0z"/></clipPath></defs></svg>