<svg width="64" height="64" viewBox="0 0 64 64" fill="none" xmlns="http://www.w3.org/2000/svg"><path d="M39.738 33.663h-4.853a7.025 7.025 0 0 0-6.008-6.008v-4.853a.94.94 0 1 0-1.88 0v4.853a6.9 6.9 0 0 0-1.696.451l-5.938-3.358a.94.94 0 0 0-1.281 1.28l3.358 5.94a6.906 6.906 0 0 0-.451 1.695h-4.853a.94.94 0 1 0 0 1.88h4.853a7.025 7.025 0 0 0 6.008 6.008v4.853a.94.94 0 1 0 1.88 0v-4.853a6.907 6.907 0 0 0 1.695-.451l5.939 3.358a.94.94 0 0 0 1.28-1.28l-3.357-5.94a6.905 6.905 0 0 0 .45-1.695h4.854a.94.94 0 0 0 0-1.88zM27.937 29.47a5.138 5.138 0 0 1 5.128 5.348l-1.802-3.186a.974.974 0 0 0-.355-.356l-3.186-1.801c.071-.003.143-.005.215-.005zm-6.552-1.419l7.521 4.253-3.268 3.268-4.253-7.52zm1.423 6.337l1.802 3.186a.98.98 0 0 0 .356.356l3.186 1.801a5.138 5.138 0 0 1-5.344-5.343zm11.68 6.767l-7.52-4.253 3.267-3.268 4.253 7.52z" fill="#7CE74F"/><path d="M39.738 33.663h-4.853a7.025 7.025 0 0 0-6.008-6.008v-4.853a.94.94 0 1 0-1.88 0v4.853a6.9 6.9 0 0 0-1.696.451l-5.938-3.358a.94.94 0 0 0-1.281 1.28l3.358 5.94a6.906 6.906 0 0 0-.451 1.695h-4.853a.94.94 0 1 0 0 1.88h4.853a7.025 7.025 0 0 0 6.008 6.008v4.853a.94.94 0 1 0 1.88 0v-4.853a6.907 6.907 0 0 0 1.695-.451l5.939 3.358a.94.94 0 0 0 1.28-1.28l-3.357-5.94a6.905 6.905 0 0 0 .45-1.695h4.854a.94.94 0 0 0 0-1.88zM27.937 29.47a5.138 5.138 0 0 1 5.128 5.348l-1.802-3.186a.974.974 0 0 0-.355-.356l-3.186-1.801c.071-.003.143-.005.215-.005zm-6.552-1.419l7.521 4.253-3.268 3.268-4.253-7.52zm1.423 6.337l1.802 3.186a.98.98 0 0 0 .356.356l3.186 1.801a5.138 5.138 0 0 1-5.344-5.343zm11.68 6.767l-7.52-4.253 3.267-3.268 4.253 7.52z" fill="url(#a)"/><path d="M51.196 4.724c-5.273 0-9.567 4.293-9.567 9.567 0 5.46 4.6 9.869 10.126 9.548a9.579 9.579 0 0 0 9.007-9.548c0-5.275-4.291-9.567-9.566-9.567zm-7.663 9c.996.747 1.944 1.57 2.829 2.454a26.135 26.135 0 0 1 4.372 5.784c-4.217-.251-7.519-3.906-7.202-8.239zm9.252 8.087a27.965 27.965 0 0 0-5.094-6.963 28.336 28.336 0 0 0-3.734-3.14c1.063-2.971 3.906-5.104 7.239-5.104 4.238 0 7.686 3.449 7.686 7.687 0 3.693-2.62 6.786-6.097 7.52z" fill="#7CE74F"/><path d="M51.196 4.724c-5.273 0-9.567 4.293-9.567 9.567 0 5.46 4.6 9.869 10.126 9.548a9.579 9.579 0 0 0 9.007-9.548c0-5.275-4.291-9.567-9.566-9.567zm-7.663 9c.996.747 1.944 1.57 2.829 2.454a26.135 26.135 0 0 1 4.372 5.784c-4.217-.251-7.519-3.906-7.202-8.239zm9.252 8.087a27.965 27.965 0 0 0-5.094-6.963 28.336 28.336 0 0 0-3.734-3.14c1.063-2.971 3.906-5.104 7.239-5.104 4.238 0 7.686 3.449 7.686 7.687 0 3.693-2.62 6.786-6.097 7.52z" fill="url(#b)"/><path d="M63.215 15.587a.94.94 0 0 0-1.082.772c-.527 3.148-2.31 5.824-5.02 7.534a3.21 3.21 0 0 0-.777.685l-4.184 5.127c-.186.185-.69.672-.953.693-.251.017-.732-.467-.9-.627-.112-.125-1.017-1.24-4.292-5.254a2.665 2.665 0 0 0-.659-.581c-5.807-3.612-6.962-11.467-2.613-16.598a11.075 11.075 0 0 1 8.462-3.924c5.273 0 9.844 3.722 10.875 8.897a.94.94 0 1 0 1.844-.368c-.6-3.005-2.189-5.616-4.598-7.553a12.939 12.939 0 0 0-8.121-2.856c-5.165 0-9.72 3.041-11.798 7.58C35.8 7.49 31.95 6.666 27.937 6.666c-7.463 0-14.478 2.906-19.754 8.183C2.906 20.125 0 27.14 0 34.603c0 7.462 2.906 14.478 8.182 19.754a27.89 27.89 0 0 0 17.739 8.109.94.94 0 0 0 .068-1.877 26.01 26.01 0 0 1-16.477-7.561C4.59 48.106 1.88 41.563 1.88 34.603c0-6.96 2.71-13.503 7.632-18.425 4.921-4.921 11.465-7.632 18.425-7.632 3.785 0 7.415.784 10.801 2.33a12.745 12.745 0 0 0-.508 3.115 22.997 22.997 0 0 0-10.293-2.432c-12.707 0-23.044 10.338-23.044 23.044 0 12.706 10.337 23.044 23.044 23.044 12.706 0 23.043-10.338 23.043-23.044 0-.783-.04-1.568-.12-2.349.143.022.325.031.487.018.912-.072 1.81-.824 2.367-1.507.185 1.266.28 2.55.28 3.838 0 6.96-2.711 13.503-7.633 18.425-4.394 4.394-9.974 6.999-16.135 7.531a.94.94 0 1 0 .161 1.873 27.915 27.915 0 0 0 17.304-8.075c5.276-5.276 8.182-12.292 8.182-19.754 0-1.94-.201-3.874-.593-5.757l2.513-3.08c.088-.107.197-.203.323-.283 3.17-2 5.254-5.13 5.87-8.814a.94.94 0 0 0-.77-1.082zM48.22 35.543h.86c-.48 10.923-9.279 19.722-20.202 20.202v-.86a.94.94 0 1 0-1.88 0v.86c-10.924-.48-19.722-9.279-20.202-20.202h.86a.94.94 0 1 0 0-1.88h-.86c.48-10.923 9.278-19.722 20.202-20.202v.86a.94.94 0 1 0 1.88 0v-.858a21.099 21.099 0 0 1 9.454 2.714c.018.139.037.278.06.417.077 1.083 1.265 6.015 5.964 8.938a.79.79 0 0 1 .196.174c3.194 3.915 3.906 4.791 4.217 5.165.165.921.27 1.856.311 2.792h-.86a.94.94 0 1 0 0 1.88z" fill="#7CE74F"/><path d="M63.215 15.587a.94.94 0 0 0-1.082.772c-.527 3.148-2.31 5.824-5.02 7.534a3.21 3.21 0 0 0-.777.685l-4.184 5.127c-.186.185-.69.672-.953.693-.251.017-.732-.467-.9-.627-.112-.125-1.017-1.24-4.292-5.254a2.665 2.665 0 0 0-.659-.581c-5.807-3.612-6.962-11.467-2.613-16.598a11.075 11.075 0 0 1 8.462-3.924c5.273 0 9.844 3.722 10.875 8.897a.94.94 0 1 0 1.844-.368c-.6-3.005-2.189-5.616-4.598-7.553a12.939 12.939 0 0 0-8.121-2.856c-5.165 0-9.72 3.041-11.798 7.58C35.8 7.49 31.95 6.666 27.937 6.666c-7.463 0-14.478 2.906-19.754 8.183C2.906 20.125 0 27.14 0 34.603c0 7.462 2.906 14.478 8.182 19.754a27.89 27.89 0 0 0 17.739 8.109.94.94 0 0 0 .068-1.877 26.01 26.01 0 0 1-16.477-7.561C4.59 48.106 1.88 41.563 1.88 34.603c0-6.96 2.71-13.503 7.632-18.425 4.921-4.921 11.465-7.632 18.425-7.632 3.785 0 7.415.784 10.801 2.33a12.745 12.745 0 0 0-.508 3.115 22.997 22.997 0 0 0-10.293-2.432c-12.707 0-23.044 10.338-23.044 23.044 0 12.706 10.337 23.044 23.044 23.044 12.706 0 23.043-10.338 23.043-23.044 0-.783-.04-1.568-.12-2.349.143.022.325.031.487.018.912-.072 1.81-.824 2.367-1.507.185 1.266.28 2.55.28 3.838 0 6.96-2.711 13.503-7.633 18.425-4.394 4.394-9.974 6.999-16.135 7.531a.94.94 0 1 0 .161 1.873 27.915 27.915 0 0 0 17.304-8.075c5.276-5.276 8.182-12.292 8.182-19.754 0-1.94-.201-3.874-.593-5.757l2.513-3.08c.088-.107.197-.203.323-.283 3.17-2 5.254-5.13 5.87-8.814a.94.94 0 0 0-.77-1.082zM48.22 35.543h.86c-.48 10.923-9.279 19.722-20.202 20.202v-.86a.94.94 0 1 0-1.88 0v.86c-10.924-.48-19.722-9.279-20.202-20.202h.86a.94.94 0 1 0 0-1.88h-.86c.48-10.923 9.278-19.722 20.202-20.202v.86a.94.94 0 1 0 1.88 0v-.858a21.099 21.099 0 0 1 9.454 2.714c.018.139.037.278.06.417.077 1.083 1.265 6.015 5.964 8.938a.79.79 0 0 1 .196.174c3.194 3.915 3.906 4.791 4.217 5.165.165.921.27 1.856.311 2.792h-.86a.94.94 0 1 0 0 1.88z" fill="url(#c)"/><defs><linearGradient id="a" x1="10.743" y1="28.233" x2="27.941" y2="47.344" gradientUnits="userSpaceOnUse"><stop stop-color="#17C1FF"/><stop offset="1" stop-color="#17C1FF" stop-opacity=".47"/></linearGradient><linearGradient id="b" x1="38.286" y1="9.508" x2="51.198" y2="23.857" gradientUnits="userSpaceOnUse"><stop stop-color="#17C1FF"/><stop offset="1" stop-color="#17C1FF" stop-opacity=".47"/></linearGradient><linearGradient id="c" x1="-11.184" y1="16.768" x2="29.68" y2="64.464" gradientUnits="userSpaceOnUse"><stop stop-color="#17C1FF"/><stop offset="1" stop-color="#17C1FF" stop-opacity=".47"/></linearGradient></defs></svg>