<svg width="64" height="56" viewBox="0 0 64 56" fill="none" xmlns="http://www.w3.org/2000/svg"><path d="M58.553 4.922H36.085a1.021 1.021 0 1 0 0 2.043h22.468a3.408 3.408 0 0 1 3.404 3.404v1.2a5.42 5.42 0 0 0-3.404-1.2H33.021V5.944A5.453 5.453 0 0 0 27.574.497H5.448A5.453 5.453 0 0 0 0 5.944v48.538c0 .564.457 1.02 1.021 1.02H62.98a1.02 1.02 0 0 0 1.021-1.02V10.369a5.453 5.453 0 0 0-5.447-5.447zm3.404 48.539H2.043V5.944a3.408 3.408 0 0 1 3.404-3.405h22.128a3.408 3.408 0 0 1 3.404 3.405v5.446c0 .565.457 1.022 1.021 1.022h26.553a3.408 3.408 0 0 1 3.404 3.404v37.645z" fill="#7CE74F"/><path d="M58.553 4.922H36.085a1.021 1.021 0 1 0 0 2.043h22.468a3.408 3.408 0 0 1 3.404 3.404v1.2a5.42 5.42 0 0 0-3.404-1.2H33.021V5.944A5.453 5.453 0 0 0 27.574.497H5.448A5.453 5.453 0 0 0 0 5.944v48.538c0 .564.457 1.02 1.021 1.02H62.98a1.02 1.02 0 0 0 1.021-1.02V10.369a5.453 5.453 0 0 0-5.447-5.447zm3.404 48.539H2.043V5.944a3.408 3.408 0 0 1 3.404-3.405h22.128a3.408 3.408 0 0 1 3.404 3.405v5.446c0 .565.457 1.022 1.021 1.022h26.553a3.408 3.408 0 0 1 3.404 3.404v37.645z" fill="url(#a)"/><path d="M45.92 32.066a5.115 5.115 0 0 0 5.108-5.109 5.115 5.115 0 0 0-5.109-5.108 5.115 5.115 0 0 0-5.109 5.108 5.115 5.115 0 0 0 5.11 5.11zm0-8.175a3.07 3.07 0 0 1 3.066 3.067 3.07 3.07 0 0 1-3.067 3.066 3.07 3.07 0 0 1-3.066-3.066 3.07 3.07 0 0 1 3.066-3.067z" fill="#7CE74F"/><path d="M45.92 32.066a5.115 5.115 0 0 0 5.108-5.109 5.115 5.115 0 0 0-5.109-5.108 5.115 5.115 0 0 0-5.109 5.108 5.115 5.115 0 0 0 5.11 5.11zm0-8.175a3.07 3.07 0 0 1 3.066 3.067 3.07 3.07 0 0 1-3.067 3.066 3.07 3.07 0 0 1-3.066-3.066 3.07 3.07 0 0 1 3.066-3.067z" fill="url(#b)"/><path d="M45.919 34.11a8.439 8.439 0 0 0-3.976.995 1.021 1.021 0 1 0 .965 1.8 6.393 6.393 0 0 1 3.011-.753 6.397 6.397 0 0 1 6.306 5.366H45.92a1.021 1.021 0 1 0 0 2.042h7.409a1.02 1.02 0 0 0 1.021-1.021c0-4.648-3.782-8.43-8.43-8.43z" fill="#7CE74F"/><path d="M45.919 34.11a8.439 8.439 0 0 0-3.976.995 1.021 1.021 0 1 0 .965 1.8 6.393 6.393 0 0 1 3.011-.753 6.397 6.397 0 0 1 6.306 5.366H45.92a1.021 1.021 0 1 0 0 2.042h7.409a1.02 1.02 0 0 0 1.021-1.021c0-4.648-3.782-8.43-8.43-8.43z" fill="url(#c)"/><path d="M18.172 41.518h-6.397a6.387 6.387 0 0 1 9.316-4.613 1.02 1.02 0 1 0 .965-1.8 8.438 8.438 0 0 0-3.975-.996c-4.648 0-8.43 3.782-8.43 8.43a1.02 1.02 0 0 0 1.021 1.021h7.5a1.021 1.021 0 1 0 0-2.042z" fill="#7CE74F"/><path d="M18.172 41.518h-6.397a6.387 6.387 0 0 1 9.316-4.613 1.02 1.02 0 1 0 .965-1.8 8.438 8.438 0 0 0-3.975-.996c-4.648 0-8.43 3.782-8.43 8.43a1.02 1.02 0 0 0 1.021 1.021h7.5a1.021 1.021 0 1 0 0-2.042z" fill="url(#d)"/><path d="M18.081 32.066a5.115 5.115 0 0 0 5.109-5.109 5.115 5.115 0 0 0-5.109-5.108 5.115 5.115 0 0 0-5.109 5.108 5.115 5.115 0 0 0 5.109 5.11zm0-8.175a3.07 3.07 0 0 1 3.066 3.067 3.07 3.07 0 0 1-3.066 3.066 3.07 3.07 0 0 1-3.066-3.066 3.07 3.07 0 0 1 3.066-3.067z" fill="#7CE74F"/><path d="M18.081 32.066a5.115 5.115 0 0 0 5.109-5.109 5.115 5.115 0 0 0-5.109-5.108 5.115 5.115 0 0 0-5.109 5.108 5.115 5.115 0 0 0 5.109 5.11zm0-8.175a3.07 3.07 0 0 1 3.066 3.067 3.07 3.07 0 0 1-3.066 3.066 3.07 3.07 0 0 1-3.066-3.066 3.07 3.07 0 0 1 3.066-3.067z" fill="url(#e)"/><path d="M32 32.436a6.585 6.585 0 0 0 6.578-6.578A6.585 6.585 0 0 0 32 19.28a6.585 6.585 0 0 0-6.578 6.578A6.585 6.585 0 0 0 32 32.436zm0-11.113a4.54 4.54 0 0 1 4.535 4.535A4.54 4.54 0 0 1 32 30.393a4.54 4.54 0 0 1-4.535-4.535A4.54 4.54 0 0 1 32 21.323z" fill="#7CE74F"/><path d="M32 32.436a6.585 6.585 0 0 0 6.578-6.578A6.585 6.585 0 0 0 32 19.28a6.585 6.585 0 0 0-6.578 6.578A6.585 6.585 0 0 0 32 32.436zm0-11.113a4.54 4.54 0 0 1 4.535 4.535A4.54 4.54 0 0 1 32 30.393a4.54 4.54 0 0 1-4.535-4.535A4.54 4.54 0 0 1 32 21.323z" fill="url(#f)"/><path d="M32 34.478c-6.116 0-11.093 4.976-11.093 11.093 0 .564.458 1.021 1.022 1.021H42.07c.564 0 1.022-.457 1.022-1.021 0-6.117-4.977-11.093-11.093-11.093zM23.007 44.55c.509-4.512 4.348-8.03 8.993-8.03 4.645 0 8.484 3.518 8.993 8.03H23.007z" fill="#7CE74F"/><path d="M32 34.478c-6.116 0-11.093 4.976-11.093 11.093 0 .564.458 1.021 1.022 1.021H42.07c.564 0 1.022-.457 1.022-1.021 0-6.117-4.977-11.093-11.093-11.093zM23.007 44.55c.509-4.512 4.348-8.03 8.993-8.03 4.645 0 8.484 3.518 8.993 8.03H23.007z" fill="url(#g)"/><defs><linearGradient id="a" x1="-11.184" y1="14.249" x2="24.948" y2="60.966" gradientUnits="userSpaceOnUse"><stop stop-color="#17C1FF"/><stop offset="1" stop-color="#17C1FF" stop-opacity=".47"/></linearGradient><linearGradient id="b" x1="39.025" y1="24.403" x2="45.921" y2="32.067" gradientUnits="userSpaceOnUse"><stop stop-color="#17C1FF"/><stop offset="1" stop-color="#17C1FF" stop-opacity=".47"/></linearGradient><linearGradient id="c" x1="39.142" y1="36.472" x2="45.029" y2="45.433" gradientUnits="userSpaceOnUse"><stop stop-color="#17C1FF"/><stop offset="1" stop-color="#17C1FF" stop-opacity=".47"/></linearGradient><linearGradient id="d" x1="7.389" y1="36.472" x2="13.276" y2="45.432" gradientUnits="userSpaceOnUse"><stop stop-color="#17C1FF"/><stop offset="1" stop-color="#17C1FF" stop-opacity=".47"/></linearGradient><linearGradient id="e" x1="11.186" y1="24.403" x2="18.083" y2="32.067" gradientUnits="userSpaceOnUse"><stop stop-color="#17C1FF"/><stop offset="1" stop-color="#17C1FF" stop-opacity=".47"/></linearGradient><linearGradient id="f" x1="23.123" y1="22.569" x2="32.002" y2="32.436" gradientUnits="userSpaceOnUse"><stop stop-color="#17C1FF"/><stop offset="1" stop-color="#17C1FF" stop-opacity=".47"/></linearGradient><linearGradient id="g" x1="17.031" y1="37.507" x2="23.539" y2="50.752" gradientUnits="userSpaceOnUse"><stop stop-color="#17C1FF"/><stop offset="1" stop-color="#17C1FF" stop-opacity=".47"/></linearGradient></defs></svg>