<svg width="100" height="100" viewBox="0 0 100 100" fill="none" xmlns="http://www.w3.org/2000/svg"><path d="M98.717 42.213l-10.887-1.98c-.06-.23-.12-.46-.185-.69l8.439-7.157c.576-.489.72-1.32.342-1.973l-6.25-10.826a1.562 1.562 0 0 0-1.88-.69l-10.428 3.734c-.165-.168-.33-.334-.498-.498l3.733-10.43a1.563 1.563 0 0 0-.69-1.88l-10.825-6.25a1.563 1.563 0 0 0-1.973.343l-7.158 8.439c-.23-.064-.46-.126-.69-.185l-1.98-10.887A1.562 1.562 0 0 0 56.25 0h-12.5c-.755 0-1.402.54-1.537 1.283l-1.98 10.887c-.23.06-.46.121-.69.185l-7.157-8.439a1.562 1.562 0 0 0-1.973-.342l-10.826 6.25a1.562 1.562 0 0 0-.69 1.88l3.734 10.429c-.168.164-.334.33-.498.498l-10.43-3.733a1.563 1.563 0 0 0-1.88.69l-6.25 10.825a1.562 1.562 0 0 0 .343 1.973l8.439 7.157c-.064.23-.126.46-.185.69l-10.887 1.98A1.563 1.563 0 0 0 0 43.75v12.5c0 .755.54 1.402 1.283 1.537l10.887 1.98c.06.23.12.46.185.69l-8.439 7.158a1.562 1.562 0 0 0-.342 1.972l6.25 10.826a1.562 1.562 0 0 0 1.88.69l10.428-3.734c.165.168.33.334.498.498l-3.733 10.43c-.254.71.036 1.502.69 1.88l10.826 6.25a1.563 1.563 0 0 0 1.972-.343l7.158-8.439c.23.064.46.126.69.185l1.98 10.887A1.563 1.563 0 0 0 43.75 100h12.5c.755 0 1.402-.54 1.537-1.283l1.98-10.887c.23-.06.46-.121.69-.185l7.157 8.439c.489.576 1.32.72 1.973.342l10.826-6.25a1.562 1.562 0 0 0 .69-1.88l-3.734-10.429c.168-.164.334-.33.498-.498l10.43 3.733a1.563 1.563 0 0 0 1.88-.69l6.25-10.825a1.562 1.562 0 0 0-.343-1.973l-8.439-7.157c.064-.23.126-.46.185-.69l10.887-1.98A1.562 1.562 0 0 0 100 56.25v-12.5c0-.755-.54-1.402-1.283-1.537zM68.75 50c0 10.339-8.411 18.75-18.75 18.75S31.25 60.339 31.25 50 39.661 31.25 50 31.25 68.75 39.661 68.75 50z" fill="#81DADD"/><path d="M50 17.188c-18.093 0-32.813 14.72-32.813 32.812 0 18.093 14.72 32.813 32.813 32.813 18.093 0 32.813-14.72 32.813-32.813 0-18.093-14.72-32.813-32.813-32.813zm0 51.562c-10.339 0-18.75-8.411-18.75-18.75S39.661 31.25 50 31.25 68.75 39.661 68.75 50 60.339 68.75 50 68.75z" fill="#68D3D6"/><path d="M50 21.875c-15.508 0-28.125 12.617-28.125 28.125S34.492 78.125 50 78.125 78.125 65.508 78.125 50 65.508 21.875 50 21.875zm0 46.875c-10.339 0-18.75-8.411-18.75-18.75S39.661 31.25 50 31.25 68.75 39.661 68.75 50 60.339 68.75 50 68.75z" fill="#C0EDEE"/></svg>