<svg width="100" height="100" viewBox="0 0 100 100" fill="none" xmlns="http://www.w3.org/2000/svg"><path d="M21.875 67.188H12.5c-.863 0-1.563.7-1.563 1.562V75c0 .863.7 1.563 1.563 1.563h9.375c.863 0 1.563-.7 1.563-1.563v-6.25c0-.863-.7-1.563-1.563-1.563z" fill="#FFE340"/><path d="M19.973 61.527a1.563 1.563 0 0 0-1.223-.59H7.812c-.862 0-1.562.7-1.562 1.563v20.313c0 .862.7 1.562 1.563 1.562h6.25c.727 0 1.358-.502 1.522-1.211l4.688-20.313a1.563 1.563 0 0 0-.3-1.324z" fill="#809292"/><path d="M23.438 42.188H7.813C3.505 42.188 0 45.691 0 50v6.25c0 4.308 3.505 7.813 7.813 7.813h15.625c.862 0 1.562-.7 1.562-1.563V43.75c0-.863-.7-1.563-1.563-1.563z" fill="#F3F2ED"/><path d="M12.5 59.375c-4.308 0-7.813-3.505-7.813-7.813v-6.25c0-.933.166-1.828.467-2.658C2.15 43.744 0 46.625 0 50v6.25c0 4.308 3.505 7.812 7.813 7.812h15.625c.862 0 1.562-.7 1.562-1.562v-3.125H12.5z" fill="#E7E5DA"/><path d="M71.21 11.22a1.564 1.564 0 0 0-2.059.235c-.276.307-27.895 30.732-47.276 30.732h-4.688v21.876h4.688c13.284 0 25.393 6.616 33.213 12.167 8.556 6.073 13.995 12.238 14.049 12.299a1.562 1.562 0 0 0 1.952.327c.498-.284.786-.833.786-1.406V12.537c0-.52-.238-1.022-.666-1.317z" fill="#81DADD"/><path d="M71.09 82.606a1.565 1.565 0 0 1-1.953-.327c-.054-.061-5.493-4.663-14.05-10.737-7.819-5.55-19.928-12.167-33.212-12.167h-4.688v4.688h4.688c13.284 0 25.393 6.616 33.213 12.167 8.556 6.073 13.995 12.238 14.049 12.299a1.562 1.562 0 0 0 1.952.327c.498-.284.786-.833.786-1.406V81.2c0 .573-.288 1.123-.786 1.406z" fill="#43C8CB"/><path d="M79.688 6.25h-9.376c-.862 0-1.562.7-1.562 1.563v84.374c0 .863.7 1.563 1.563 1.563h9.374c.863 0 1.563-.7 1.563-1.563V7.814c0-.863-.7-1.563-1.563-1.563z" fill="#F3F2ED"/><path d="M98.438 51.563H93.75a1.563 1.563 0 0 1 0-3.126h4.688a1.563 1.563 0 0 1 0 3.126zM87.32 30.678a1.58 1.58 0 0 1-1.529-1.228 1.577 1.577 0 0 1 .746-1.687l4.059-2.344a1.562 1.562 0 1 1 1.563 2.706l-4.06 2.344c-.246.142-.514.21-.78.21zm4.055 44.113c-.266 0-.534-.067-.78-.21l-4.06-2.343a1.562 1.562 0 1 1 1.563-2.707l4.06 2.344c.582.336.889 1.03.745 1.688a1.58 1.58 0 0 1-1.528 1.228z" fill="#FFE340"/></svg>