<svg width="54" height="64" viewBox="0 0 54 64" fill="none" xmlns="http://www.w3.org/2000/svg"><path d="M53.073 56.97L44.6 36.516a1.021 1.021 0 1 0-1.887.782l7.66 18.492-6.987-2.024a1.021 1.021 0 0 0-1.179.488l-3.509 6.372-8.219-19.842c9.486-1.83 16.674-10.193 16.674-20.205C47.153 9.23 37.922 0 26.575 0 15.23 0 5.997 9.231 5.997 20.578a20.47 20.47 0 0 0 4.071 12.273l-9.99 24.12a1.021 1.021 0 0 0 1.228 1.371l8.242-2.388 4.14 7.517a1.022 1.022 0 0 0 1.838-.101l7.916-19.112a1.021 1.021 0 1 0-1.887-.782l-7.103 17.149-3.509-6.372a1.021 1.021 0 0 0-1.178-.488l-6.987 2.024 8.769-21.17c3.758 4.02 9.104 6.537 15.028 6.537.612 0 1.217-.029 1.815-.081l9.234 22.294a1.021 1.021 0 0 0 1.838.102l4.14-7.517 8.243 2.388a1.021 1.021 0 0 0 1.228-1.371zM8.04 20.579c0-10.22 8.315-18.535 18.535-18.535s18.536 8.314 18.536 18.535c0 10.22-8.315 18.535-18.536 18.535-10.22 0-18.535-8.315-18.535-18.535z" fill="#7CE74F"/><path d="M53.073 56.97L44.6 36.516a1.021 1.021 0 1 0-1.887.782l7.66 18.492-6.987-2.024a1.021 1.021 0 0 0-1.179.488l-3.509 6.372-8.219-19.842c9.486-1.83 16.674-10.193 16.674-20.205C47.153 9.23 37.922 0 26.575 0 15.23 0 5.997 9.231 5.997 20.578a20.47 20.47 0 0 0 4.071 12.273l-9.99 24.12a1.021 1.021 0 0 0 1.228 1.371l8.242-2.388 4.14 7.517a1.022 1.022 0 0 0 1.838-.101l7.916-19.112a1.021 1.021 0 1 0-1.887-.782l-7.103 17.149-3.509-6.372a1.021 1.021 0 0 0-1.178-.488l-6.987 2.024 8.769-21.17c3.758 4.02 9.104 6.537 15.028 6.537.612 0 1.217-.029 1.815-.081l9.234 22.294a1.021 1.021 0 0 0 1.838.102l4.14-7.517 8.243 2.388a1.021 1.021 0 0 0 1.228-1.371zM8.04 20.579c0-10.22 8.315-18.535 18.535-18.535s18.536 8.314 18.536 18.535c0 10.22-8.315 18.535-18.536 18.535-10.22 0-18.535-8.315-18.535-18.535z" fill="url(#a)"/><path d="M38.376 16.744a1.021 1.021 0 0 0-.803-.692l-6.872-1.153-3.22-6.18a1.021 1.021 0 0 0-1.811 0l-3.22 6.18-6.873 1.153a1.021 1.021 0 0 0-.56 1.723l4.882 4.972-1.027 6.892a1.021 1.021 0 0 0 1.466 1.065l6.237-3.107 6.238 3.107a1.02 1.02 0 0 0 1.465-1.065l-1.026-6.892 4.881-4.972c.267-.272.36-.67.243-1.031zm-6.938 4.935c-.225.229-.329.55-.282.866l.813 5.457-4.938-2.46a1.021 1.021 0 0 0-.911 0l-4.939 2.46.813-5.457a1.021 1.021 0 0 0-.281-.866l-3.865-3.937 5.44-.913c.317-.053.59-.251.738-.535l2.55-4.893 2.549 4.893c.148.284.42.482.737.535l5.44.913-3.864 3.937z" fill="#7CE74F"/><path d="M38.376 16.744a1.021 1.021 0 0 0-.803-.692l-6.872-1.153-3.22-6.18a1.021 1.021 0 0 0-1.811 0l-3.22 6.18-6.873 1.153a1.021 1.021 0 0 0-.56 1.723l4.882 4.972-1.027 6.892a1.021 1.021 0 0 0 1.466 1.065l6.237-3.107 6.238 3.107a1.02 1.02 0 0 0 1.465-1.065l-1.026-6.892 4.881-4.972c.267-.272.36-.67.243-1.031zm-6.938 4.935c-.225.229-.329.55-.282.866l.813 5.457-4.938-2.46a1.021 1.021 0 0 0-.911 0l-4.939 2.46.813-5.457a1.021 1.021 0 0 0-.281-.866l-3.865-3.937 5.44-.913c.317-.053.59-.251.738-.535l2.55-4.893 2.549 4.893c.148.284.42.482.737.535l5.44.913-3.864 3.937z" fill="url(#b)"/><path d="M42.046 21.608a1.02 1.02 0 0 0-1.147.878c-.947 7.15-7.105 12.542-14.324 12.542-7.967 0-14.45-6.482-14.45-14.45 0-7.968 6.483-14.45 14.45-14.45 7.22 0 13.377 5.392 14.324 12.542a1.021 1.021 0 1 0 2.025-.269c-1.081-8.161-8.11-14.316-16.349-14.316-9.094 0-16.492 7.399-16.492 16.493 0 9.094 7.398 16.493 16.492 16.493 8.24 0 15.268-6.155 16.35-14.316a1.021 1.021 0 0 0-.88-1.147z" fill="#7CE74F"/><path d="M42.046 21.608a1.02 1.02 0 0 0-1.147.878c-.947 7.15-7.105 12.542-14.324 12.542-7.967 0-14.45-6.482-14.45-14.45 0-7.968 6.483-14.45 14.45-14.45 7.22 0 13.377 5.392 14.324 12.542a1.021 1.021 0 1 0 2.025-.269c-1.081-8.161-8.11-14.316-16.349-14.316-9.094 0-16.492 7.399-16.492 16.493 0 9.094 7.398 16.493 16.492 16.493 8.24 0 15.268-6.155 16.35-14.316a1.021 1.021 0 0 0-.88-1.147z" fill="url(#c)"/><defs><linearGradient id="a" x1="-9.288" y1="16.001" x2="34.008" y2="55.957" gradientUnits="userSpaceOnUse"><stop stop-color="#17C1FF"/><stop offset="1" stop-color="#17C1FF" stop-opacity=".47"/></linearGradient><linearGradient id="b" x1="10.583" y1="13.831" x2="25.775" y2="31.503" gradientUnits="userSpaceOnUse"><stop stop-color="#17C1FF"/><stop offset="1" stop-color="#17C1FF" stop-opacity=".47"/></linearGradient><linearGradient id="c" x1="4.342" y1="12.332" x2="26.614" y2="36.98" gradientUnits="userSpaceOnUse"><stop stop-color="#17C1FF"/><stop offset="1" stop-color="#17C1FF" stop-opacity=".47"/></linearGradient></defs></svg>