<svg width="30" height="30" viewBox="0 0 30 30" fill="none" xmlns="http://www.w3.org/2000/svg"><path fill-rule="evenodd" clip-rule="evenodd" d="M30 15c0 8.284-6.716 15-15 15-8.284 0-15-6.716-15-15C0 6.716 6.716 0 15 0c8.284 0 15 6.716 15 15zm-7.284.083c0 .554-.06 1.094-.176 1.615.294.585.46 1.242.46 1.939C23 21.046 21.019 23 18.575 23a4.456 4.456 0 0 1-2.092-.519 7.79 7.79 0 0 1-1.398.127c-4.215 0-7.632-3.369-7.632-7.525 0-.518.054-1.024.155-1.512A4.304 4.304 0 0 1 7 11.364C7 8.953 8.981 7 11.426 7c.865 0 1.672.246 2.354.67.425-.073.86-.111 1.305-.111 4.215 0 7.63 3.37 7.63 7.524z" fill="#7CE74F"/><path fill-rule="evenodd" clip-rule="evenodd" d="M30 15c0 8.284-6.716 15-15 15-8.284 0-15-6.716-15-15C0 6.716 6.716 0 15 0c8.284 0 15 6.716 15 15zm-7.284.083c0 .554-.06 1.094-.176 1.615.294.585.46 1.242.46 1.939C23 21.046 21.019 23 18.575 23a4.456 4.456 0 0 1-2.092-.519 7.79 7.79 0 0 1-1.398.127c-4.215 0-7.632-3.369-7.632-7.525 0-.518.054-1.024.155-1.512A4.304 4.304 0 0 1 7 11.364C7 8.953 8.981 7 11.426 7c.865 0 1.672.246 2.354.67.425-.073.86-.111 1.305-.111 4.215 0 7.63 3.37 7.63 7.524z" fill="url(#a)"/><path fill-rule="evenodd" clip-rule="evenodd" d="M19 18.68c-.354.493-.875.882-1.552 1.159-.67.274-1.47.414-2.384.414-1.096 0-2.015-.19-2.733-.566a3.542 3.542 0 0 1-1.256-1.1c-.324-.46-.488-.917-.488-1.359a.94.94 0 0 1 .318-.71c.209-.194.477-.291.797-.291.261 0 .488.076.671.23.176.147.327.365.448.644.136.306.283.564.438.765.15.197.366.36.64.49.277.128.65.194 1.109.194.63 0 1.148-.133 1.537-.395.38-.255.565-.563.565-.939a.922.922 0 0 0-.294-.713 2.137 2.137 0 0 0-.815-.444 16.496 16.496 0 0 0-1.4-.342c-.793-.167-1.466-.364-2-.59-.547-.229-.989-.547-1.311-.945-.328-.405-.494-.912-.494-1.508 0-.568.174-1.08.518-1.522.34-.439.84-.782 1.482-1.015.633-.23 1.386-.347 2.239-.347.68 0 1.28.077 1.78.231.504.154.927.362 1.26.619.336.26.586.535.742.822.159.29.24.58.24.858 0 .27-.106.514-.314.726a1.053 1.053 0 0 1-.783.324c-.283 0-.505-.068-.657-.202-.143-.125-.292-.32-.456-.598a2.493 2.493 0 0 0-.685-.836c-.257-.193-.685-.29-1.275-.29-.546 0-.991.108-1.322.323-.318.205-.473.441-.473.721 0 .17.05.315.153.437.108.132.261.245.455.341.2.1.407.18.614.235.212.058.568.145 1.056.256a17.7 17.7 0 0 1 1.687.436c.508.16.947.356 1.306.587.365.234.654.535.86.895.206.362.31.807.31 1.326 0 .62-.18 1.184-.534 1.678z" fill="#7CE74F"/><path fill-rule="evenodd" clip-rule="evenodd" d="M19 18.68c-.354.493-.875.882-1.552 1.159-.67.274-1.47.414-2.384.414-1.096 0-2.015-.19-2.733-.566a3.542 3.542 0 0 1-1.256-1.1c-.324-.46-.488-.917-.488-1.359a.94.94 0 0 1 .318-.71c.209-.194.477-.291.797-.291.261 0 .488.076.671.23.176.147.327.365.448.644.136.306.283.564.438.765.15.197.366.36.64.49.277.128.65.194 1.109.194.63 0 1.148-.133 1.537-.395.38-.255.565-.563.565-.939a.922.922 0 0 0-.294-.713 2.137 2.137 0 0 0-.815-.444 16.496 16.496 0 0 0-1.4-.342c-.793-.167-1.466-.364-2-.59-.547-.229-.989-.547-1.311-.945-.328-.405-.494-.912-.494-1.508 0-.568.174-1.08.518-1.522.34-.439.84-.782 1.482-1.015.633-.23 1.386-.347 2.239-.347.68 0 1.28.077 1.78.231.504.154.927.362 1.26.619.336.26.586.535.742.822.159.29.24.58.24.858 0 .27-.106.514-.314.726a1.053 1.053 0 0 1-.783.324c-.283 0-.505-.068-.657-.202-.143-.125-.292-.32-.456-.598a2.493 2.493 0 0 0-.685-.836c-.257-.193-.685-.29-1.275-.29-.546 0-.991.108-1.322.323-.318.205-.473.441-.473.721 0 .17.05.315.153.437.108.132.261.245.455.341.2.1.407.18.614.235.212.058.568.145 1.056.256a17.7 17.7 0 0 1 1.687.436c.508.16.947.356 1.306.587.365.234.654.535.86.895.206.362.31.807.31 1.326 0 .62-.18 1.184-.534 1.678z" fill="url(#b)"/><defs><linearGradient id="a" x1="-5.243" y1="7.501" x2="15.005" y2="30" gradientUnits="userSpaceOnUse"><stop stop-color="#17C1FF"/><stop offset="1" stop-color="#17C1FF" stop-opacity=".47"/></linearGradient><linearGradient id="b" x1="9.024" y1="12.406" x2="16.116" y2="19.144" gradientUnits="userSpaceOnUse"><stop stop-color="#17C1FF"/><stop offset="1" stop-color="#17C1FF" stop-opacity=".47"/></linearGradient></defs></svg>