<svg width="64" height="64" viewBox="0 0 64 64" fill="none" xmlns="http://www.w3.org/2000/svg"><path d="M62.979 3.064H1.02A1.02 1.02 0 0 0 0 4.085v55.83a1.02 1.02 0 0 0 1.021 1.021H62.98a1.02 1.02 0 0 0 1.021-1.021V49.02a1.021 1.021 0 1 0-2.043 0v9.873H2.043V13.277h59.914v31.66a1.021 1.021 0 0 0 2.043 0V4.084a1.02 1.02 0 0 0-1.021-1.021zM2.043 5.106H39.83v6.128H2.043V5.106zm39.83 6.128V5.106h20.084v6.128H41.872z" fill="#7CE74F"/><path d="M62.979 3.064H1.02A1.02 1.02 0 0 0 0 4.085v55.83a1.02 1.02 0 0 0 1.021 1.021H62.98a1.02 1.02 0 0 0 1.021-1.021V49.02a1.021 1.021 0 1 0-2.043 0v9.873H2.043V13.277h59.914v31.66a1.021 1.021 0 0 0 2.043 0V4.084a1.02 1.02 0 0 0-1.021-1.021zM2.043 5.106H39.83v6.128H2.043V5.106zm39.83 6.128V5.106h20.084v6.128H41.872z" fill="url(#a)"/><path d="M51.949 7.08a1.09 1.09 0 0 0 0 2.179c.6 0 1.09-.488 1.09-1.089 0-.6-.49-1.09-1.09-1.09z" fill="#7CE74F"/><path d="M51.949 7.08a1.09 1.09 0 0 0 0 2.179c.6 0 1.09-.488 1.09-1.089 0-.6-.49-1.09-1.09-1.09z" fill="url(#b)"/><path d="M46.366 7.08a1.09 1.09 0 0 0 0 2.179 1.09 1.09 0 0 0 0-2.178z" fill="#7CE74F"/><path d="M46.366 7.08a1.09 1.09 0 0 0 0 2.179 1.09 1.09 0 0 0 0-2.178z" fill="url(#c)"/><path d="M57.532 7.08a1.09 1.09 0 0 0 0 2.179c.6 0 1.09-.488 1.09-1.089 0-.6-.49-1.09-1.09-1.09z" fill="#7CE74F"/><path d="M57.532 7.08a1.09 1.09 0 0 0 0 2.179c.6 0 1.09-.488 1.09-1.089 0-.6-.49-1.09-1.09-1.09z" fill="url(#d)"/><path d="M40.246 37.825a1.021 1.021 0 0 0-1.444 0l-5.482 5.482c-.4-.191-.848-.3-1.32-.3a3.067 3.067 0 0 0-3.064 3.065A3.067 3.067 0 0 0 32 49.135a3.067 3.067 0 0 0 2.764-4.383l5.482-5.482a1.021 1.021 0 0 0 0-1.445zM32 47.093a1.022 1.022 0 0 1 0-2.042 1.022 1.022 0 0 1 0 2.042z" fill="#7CE74F"/><path d="M40.246 37.825a1.021 1.021 0 0 0-1.444 0l-5.482 5.482c-.4-.191-.848-.3-1.32-.3a3.067 3.067 0 0 0-3.064 3.065A3.067 3.067 0 0 0 32 49.135a3.067 3.067 0 0 0 2.764-4.383l5.482-5.482a1.021 1.021 0 0 0 0-1.445zM32 47.093a1.022 1.022 0 0 1 0-2.042 1.022 1.022 0 0 1 0 2.042z" fill="url(#e)"/><path d="M45.71 46.072a1.02 1.02 0 0 0 1.02 1.021h7.289a1.021 1.021 0 0 0 1.018-1.098c-.02-6.266-2.556-11.95-6.648-16.096a1.016 1.016 0 0 0-.215-.215c-4.162-4.109-9.877-6.65-16.174-6.65-6.297 0-12.01 2.54-16.173 6.65a.965.965 0 0 0-.117.098 1.025 1.025 0 0 0-.1.117c-4.107 4.162-6.648 9.876-6.648 16.173 0 .564.457 1.021 1.022 1.021h7.285a1.02 1.02 0 0 0 1.021-1.021c0-7.56 6.15-13.71 13.71-13.71 7.56 0 13.71 6.15 13.71 13.71zM21.613 34.24L17.9 30.53a20.912 20.912 0 0 1 13.078-5.427v5.252a15.687 15.687 0 0 0-9.366 3.886zm11.408-9.138A20.913 20.913 0 0 1 46.1 30.529l-3.712 3.711a15.687 15.687 0 0 0-9.366-3.887v-5.251zM47.72 45.05a15.686 15.686 0 0 0-3.887-9.367l3.71-3.71A20.915 20.915 0 0 1 52.97 45.05h-5.25zm-31.438 0H11.03a20.915 20.915 0 0 1 5.427-13.078l3.711 3.711a15.689 15.689 0 0 0-3.887 9.366z" fill="#7CE74F"/><path d="M45.71 46.072a1.02 1.02 0 0 0 1.02 1.021h7.289a1.021 1.021 0 0 0 1.018-1.098c-.02-6.266-2.556-11.95-6.648-16.096a1.016 1.016 0 0 0-.215-.215c-4.162-4.109-9.877-6.65-16.174-6.65-6.297 0-12.01 2.54-16.173 6.65a.965.965 0 0 0-.117.098 1.025 1.025 0 0 0-.1.117c-4.107 4.162-6.648 9.876-6.648 16.173 0 .564.457 1.021 1.022 1.021h7.285a1.02 1.02 0 0 0 1.021-1.021c0-7.56 6.15-13.71 13.71-13.71 7.56 0 13.71 6.15 13.71 13.71zM21.613 34.24L17.9 30.53a20.912 20.912 0 0 1 13.078-5.427v5.252a15.687 15.687 0 0 0-9.366 3.886zm11.408-9.138A20.913 20.913 0 0 1 46.1 30.529l-3.712 3.711a15.687 15.687 0 0 0-9.366-3.887v-5.251zM47.72 45.05a15.686 15.686 0 0 0-3.887-9.367l3.71-3.71A20.915 20.915 0 0 1 52.97 45.05h-5.25zm-31.438 0H11.03a20.915 20.915 0 0 1 5.427-13.078l3.711 3.711a15.689 15.689 0 0 0-3.887 9.366z" fill="url(#f)"/><defs><linearGradient id="a" x1="-11.184" y1="17.533" x2="27.273" y2="64.792" gradientUnits="userSpaceOnUse"><stop stop-color="#17C1FF"/><stop offset="1" stop-color="#17C1FF" stop-opacity=".47"/></linearGradient><linearGradient id="b" x1="50.479" y1="7.626" x2="51.949" y2="9.26" gradientUnits="userSpaceOnUse"><stop stop-color="#17C1FF"/><stop offset="1" stop-color="#17C1FF" stop-opacity=".47"/></linearGradient><linearGradient id="c" x1="44.896" y1="7.626" x2="46.366" y2="9.26" gradientUnits="userSpaceOnUse"><stop stop-color="#17C1FF"/><stop offset="1" stop-color="#17C1FF" stop-opacity=".47"/></linearGradient><linearGradient id="d" x1="56.062" y1="7.626" x2="57.532" y2="9.26" gradientUnits="userSpaceOnUse"><stop stop-color="#17C1FF"/><stop offset="1" stop-color="#17C1FF" stop-opacity=".47"/></linearGradient><linearGradient id="e" x1="26.907" y1="40.429" x2="34.743" y2="49.136" gradientUnits="userSpaceOnUse"><stop stop-color="#17C1FF"/><stop offset="1" stop-color="#17C1FF" stop-opacity=".47"/></linearGradient><linearGradient id="f" x1=".91" y1="29.05" x2="13.479" y2="55.8" gradientUnits="userSpaceOnUse"><stop stop-color="#17C1FF"/><stop offset="1" stop-color="#17C1FF" stop-opacity=".47"/></linearGradient></defs></svg>