<svg width="30" height="30" viewBox="0 0 30 30" fill="none" xmlns="http://www.w3.org/2000/svg"><path fill-rule="evenodd" clip-rule="evenodd" d="M15 30c8.284 0 15-6.716 15-15 0-8.284-6.716-15-15-15C6.716 0 0 6.716 0 15c0 8.284 6.716 15 15 15zm-2.75-8.125c.365 0 .532-.163.733-.359L13 21.5l1.802-1.752 3.748 2.77c.69.38 1.188.183 1.36-.641l2.46-11.596c.252-1.01-.385-1.468-1.045-1.168L6.877 14.684c-.987.396-.981.946-.18 1.191l3.708 1.157 8.584-5.415c.405-.246.777-.114.472.157l-6.955 6.277h-.001l-.255 3.824z" fill="#25B8EE"/></svg>