<svg width="64" height="64" viewBox="0 0 64 64" fill="none" xmlns="http://www.w3.org/2000/svg"><g clip-path="url(#a)"><path d="M42.797 31.23l-1.83-1.83a.938.938 0 0 0-1.326 1.326l.237.237h-4.754a2.44 2.44 0 0 0-2.197-2.22v-7.666l.237.237a.938.938 0 0 0 1.326-1.326l-1.83-1.83a.938.938 0 0 0-1.325 0l-1.83 1.83a.937.937 0 0 0 1.326 1.326l.221-.221v7.65a2.44 2.44 0 0 0-2.207 2.427v1.415a2.44 2.44 0 0 0 2.437 2.437h1.415a2.44 2.44 0 0 0 2.424-2.184h4.741l-.22.221a.938.938 0 0 0 1.325 1.326l1.83-1.83a.938.938 0 0 0 0-1.325zm-9.537 1.355a.57.57 0 0 1-.563.562h-1.414a.57.57 0 0 1-.563-.562V31.17a.57.57 0 0 1 .563-.563h1.414a.57.57 0 0 1 .563.563v1.415z" fill="#7CE74F"/><path d="M42.797 31.23l-1.83-1.83a.938.938 0 0 0-1.326 1.326l.237.237h-4.754a2.44 2.44 0 0 0-2.197-2.22v-7.666l.237.237a.938.938 0 0 0 1.326-1.326l-1.83-1.83a.938.938 0 0 0-1.325 0l-1.83 1.83a.937.937 0 0 0 1.326 1.326l.221-.221v7.65a2.44 2.44 0 0 0-2.207 2.427v1.415a2.44 2.44 0 0 0 2.437 2.437h1.415a2.44 2.44 0 0 0 2.424-2.184h4.741l-.22.221a.938.938 0 0 0 1.325 1.326l1.83-1.83a.938.938 0 0 0 0-1.325zm-9.537 1.355a.57.57 0 0 1-.563.562h-1.414a.57.57 0 0 1-.563-.562V31.17a.57.57 0 0 1 .563-.563h1.414a.57.57 0 0 1 .563.563v1.415z" fill="url(#b)"/><path d="M52.439 31.63v-.008c-.375-11.015-9.444-19.749-20.44-19.749-11.276 0-20.451 9.175-20.451 20.452 0 11.277 9.175 20.452 20.452 20.452 11.503 0 20.828-9.55 20.439-21.146zM32.937 13.773c9.411.473 17.04 8.038 17.605 17.434h-1.345c-.556-8.682-7.56-15.63-16.26-16.1v-1.334zm15.668 26.876l-1.486-.858a.938.938 0 0 0-.938 1.624l1.498.864a18.726 18.726 0 0 1-5.518 5.59l-.89-1.543a.938.938 0 0 0-1.624.938l.897 1.554a18.441 18.441 0 0 1-7.607 2.062v-1.82a.937.937 0 1 0-1.875 0v1.818a18.441 18.441 0 0 1-7.606-2.062l.897-1.554a.938.938 0 0 0-1.624-.938l-.89 1.544a18.729 18.729 0 0 1-5.518-5.59l1.497-.865a.938.938 0 1 0-.938-1.624l-1.485.858a18.447 18.447 0 0 1-1.956-7.567h1.643a.937.937 0 1 0 0-1.875h-1.625c.16-2.687.895-5.222 2.082-7.483l1.341.774a.938.938 0 0 0 .938-1.624l-1.325-.765a18.727 18.727 0 0 1 5.497-5.427l.739 1.28a.938.938 0 0 0 1.624-.937l-.736-1.274a18.442 18.442 0 0 1 7.445-1.978v2.246c0 .518.42.938.937.938 8.376.005 15.266 6.823 15.358 15.198a.937.937 0 0 0 .937.927h2.266a18.444 18.444 0 0 1-1.956 7.567z" fill="#7CE74F"/><path d="M52.439 31.63v-.008c-.375-11.015-9.444-19.749-20.44-19.749-11.276 0-20.451 9.175-20.451 20.452 0 11.277 9.175 20.452 20.452 20.452 11.503 0 20.828-9.55 20.439-21.146zM32.937 13.773c9.411.473 17.04 8.038 17.605 17.434h-1.345c-.556-8.682-7.56-15.63-16.26-16.1v-1.334zm15.668 26.876l-1.486-.858a.938.938 0 0 0-.938 1.624l1.498.864a18.726 18.726 0 0 1-5.518 5.59l-.89-1.543a.938.938 0 0 0-1.624.938l.897 1.554a18.441 18.441 0 0 1-7.607 2.062v-1.82a.937.937 0 1 0-1.875 0v1.818a18.441 18.441 0 0 1-7.606-2.062l.897-1.554a.938.938 0 0 0-1.624-.938l-.89 1.544a18.729 18.729 0 0 1-5.518-5.59l1.497-.865a.938.938 0 1 0-.938-1.624l-1.485.858a18.447 18.447 0 0 1-1.956-7.567h1.643a.937.937 0 1 0 0-1.875h-1.625c.16-2.687.895-5.222 2.082-7.483l1.341.774a.938.938 0 0 0 .938-1.624l-1.325-.765a18.727 18.727 0 0 1 5.497-5.427l.739 1.28a.938.938 0 0 0 1.624-.937l-.736-1.274a18.442 18.442 0 0 1 7.445-1.978v2.246c0 .518.42.938.937.938 8.376.005 15.266 6.823 15.358 15.198a.937.937 0 0 0 .937.927h2.266a18.444 18.444 0 0 1-1.956 7.567z" fill="url(#c)"/><path d="M63.062 32.991a.937.937 0 0 0-.937.938v2.149a.018.018 0 0 1-.017.017h-4.394a.938.938 0 0 0-.92.758 24.998 24.998 0 0 1-3.831 9.246.938.938 0 0 0 .114 1.187l3.108 3.107a.017.017 0 0 1 0 .024l-5.767 5.767a.017.017 0 0 1-.024 0l-3.108-3.107a.938.938 0 0 0-1.187-.115 25 25 0 0 1-9.246 3.83.938.938 0 0 0-.758.92v4.395c0 .01-.008.017-.017.017h-1.847a.937.937 0 1 0 0 1.875h1.847a1.894 1.894 0 0 0 1.892-1.892v-3.632a26.822 26.822 0 0 0 8.529-3.534l2.569 2.57a1.895 1.895 0 0 0 2.676 0l5.767-5.768a1.894 1.894 0 0 0 0-2.675l-2.57-2.57a26.827 26.827 0 0 0 3.534-8.529h3.633A1.894 1.894 0 0 0 64 36.077V33.93a.938.938 0 0 0-.938-.938z" fill="#7CE74F"/><path d="M63.062 32.991a.937.937 0 0 0-.937.938v2.149a.018.018 0 0 1-.017.017h-4.394a.938.938 0 0 0-.92.758 24.998 24.998 0 0 1-3.831 9.246.938.938 0 0 0 .114 1.187l3.108 3.107a.017.017 0 0 1 0 .024l-5.767 5.767a.017.017 0 0 1-.024 0l-3.108-3.107a.938.938 0 0 0-1.187-.115 25 25 0 0 1-9.246 3.83.938.938 0 0 0-.758.92v4.395c0 .01-.008.017-.017.017h-1.847a.937.937 0 1 0 0 1.875h1.847a1.894 1.894 0 0 0 1.892-1.892v-3.632a26.822 26.822 0 0 0 8.529-3.534l2.569 2.57a1.895 1.895 0 0 0 2.676 0l5.767-5.768a1.894 1.894 0 0 0 0-2.675l-2.57-2.57a26.827 26.827 0 0 0 3.534-8.529h3.633A1.894 1.894 0 0 0 64 36.077V33.93a.938.938 0 0 0-.938-.938z" fill="url(#d)"/><path d="M62.108 26.03h-3.633a26.825 26.825 0 0 0-3.534-8.528l2.57-2.57a1.88 1.88 0 0 0 .554-1.337c0-.506-.197-.98-.554-1.338L51.742 6.49a1.895 1.895 0 0 0-2.675 0l-2.57 2.57a26.83 26.83 0 0 0-8.528-3.534V1.893A1.894 1.894 0 0 0 36.078.001h-8.156a1.894 1.894 0 0 0-1.892 1.892v3.633a26.824 26.824 0 0 0-8.53 3.533l-2.57-2.57a1.895 1.895 0 0 0-2.675 0L6.49 12.258a1.895 1.895 0 0 0 0 2.676l2.569 2.57a26.832 26.832 0 0 0-3.534 8.528H1.892A1.894 1.894 0 0 0 0 27.923v8.156c0 1.043.849 1.892 1.892 1.892h3.633A26.824 26.824 0 0 0 9.058 46.5l-2.57 2.57a1.895 1.895 0 0 0 0 2.675l5.768 5.767a1.895 1.895 0 0 0 2.676 0l2.569-2.57a26.827 26.827 0 0 0 8.529 3.534v3.633c0 1.043.849 1.892 1.892 1.892h1.934a.937.937 0 1 0 0-1.875h-1.934a.017.017 0 0 1-.017-.017v-4.394a.938.938 0 0 0-.758-.92 24.997 24.997 0 0 1-9.246-3.831.938.938 0 0 0-1.188.114l-3.107 3.108a.017.017 0 0 1-.024 0L7.815 50.42a.017.017 0 0 1 0-.024l3.108-3.108a.938.938 0 0 0 .114-1.187 25 25 0 0 1-3.83-9.246.938.938 0 0 0-.92-.758H1.891a.017.017 0 0 1-.017-.017v-8.156c0-.01.008-.017.017-.017h4.394a.938.938 0 0 0 .92-.758 24.997 24.997 0 0 1 3.831-9.246.938.938 0 0 0-.114-1.187l-3.108-3.108a.017.017 0 0 1 0-.024l5.767-5.767a.017.017 0 0 1 .024 0l3.108 3.108a.938.938 0 0 0 1.187.114 24.996 24.996 0 0 1 9.246-3.83.938.938 0 0 0 .758-.92V1.893c0-.01.008-.017.017-.017h8.156c.01 0 .017.008.017.017v4.394c0 .45.318.835.758.92a24.995 24.995 0 0 1 9.246 3.831c.372.25.87.203 1.187-.114l3.108-3.108a.017.017 0 0 1 .024 0l5.767 5.767c.006.006.005.018 0 .024l-3.108 3.108a.938.938 0 0 0-.114 1.186 25 25 0 0 1 3.83 9.247c.086.44.472.758.92.758h4.395c.01 0 .017.008.017.017v1.632a.937.937 0 1 0 1.875 0v-1.632a1.895 1.895 0 0 0-1.892-1.892z" fill="#7CE74F"/><path d="M62.108 26.03h-3.633a26.825 26.825 0 0 0-3.534-8.528l2.57-2.57a1.88 1.88 0 0 0 .554-1.337c0-.506-.197-.98-.554-1.338L51.742 6.49a1.895 1.895 0 0 0-2.675 0l-2.57 2.57a26.83 26.83 0 0 0-8.528-3.534V1.893A1.894 1.894 0 0 0 36.078.001h-8.156a1.894 1.894 0 0 0-1.892 1.892v3.633a26.824 26.824 0 0 0-8.53 3.533l-2.57-2.57a1.895 1.895 0 0 0-2.675 0L6.49 12.258a1.895 1.895 0 0 0 0 2.676l2.569 2.57a26.832 26.832 0 0 0-3.534 8.528H1.892A1.894 1.894 0 0 0 0 27.923v8.156c0 1.043.849 1.892 1.892 1.892h3.633A26.824 26.824 0 0 0 9.058 46.5l-2.57 2.57a1.895 1.895 0 0 0 0 2.675l5.768 5.767a1.895 1.895 0 0 0 2.676 0l2.569-2.57a26.827 26.827 0 0 0 8.529 3.534v3.633c0 1.043.849 1.892 1.892 1.892h1.934a.937.937 0 1 0 0-1.875h-1.934a.017.017 0 0 1-.017-.017v-4.394a.938.938 0 0 0-.758-.92 24.997 24.997 0 0 1-9.246-3.831.938.938 0 0 0-1.188.114l-3.107 3.108a.017.017 0 0 1-.024 0L7.815 50.42a.017.017 0 0 1 0-.024l3.108-3.108a.938.938 0 0 0 .114-1.187 25 25 0 0 1-3.83-9.246.938.938 0 0 0-.92-.758H1.891a.017.017 0 0 1-.017-.017v-8.156c0-.01.008-.017.017-.017h4.394a.938.938 0 0 0 .92-.758 24.997 24.997 0 0 1 3.831-9.246.938.938 0 0 0-.114-1.187l-3.108-3.108a.017.017 0 0 1 0-.024l5.767-5.767a.017.017 0 0 1 .024 0l3.108 3.108a.938.938 0 0 0 1.187.114 24.996 24.996 0 0 1 9.246-3.83.938.938 0 0 0 .758-.92V1.893c0-.01.008-.017.017-.017h8.156c.01 0 .017.008.017.017v4.394c0 .45.318.835.758.92a24.995 24.995 0 0 1 9.246 3.831c.372.25.87.203 1.187-.114l3.108-3.108a.017.017 0 0 1 .024 0l5.767 5.767c.006.006.005.018 0 .024l-3.108 3.108a.938.938 0 0 0-.114 1.186 25 25 0 0 1 3.83 9.247c.086.44.472.758.92.758h4.395c.01 0 .017.008.017.017v1.632a.937.937 0 1 0 1.875 0v-1.632a1.895 1.895 0 0 0-1.892-1.892z" fill="url(#e)"/></g><defs><linearGradient id="b" x1="26.359" y1="22.169" x2="37.952" y2="32.863" gradientUnits="userSpaceOnUse"><stop stop-color="#17C1FF"/><stop offset="1" stop-color="#17C1FF" stop-opacity=".47"/></linearGradient><linearGradient id="c" x1="4.4" y1="22.1" x2="32.007" y2="52.777" gradientUnits="userSpaceOnUse"><stop stop-color="#17C1FF"/><stop offset="1" stop-color="#17C1FF" stop-opacity=".47"/></linearGradient><linearGradient id="d" x1="27.927" y1="40.744" x2="48.876" y2="63.796" gradientUnits="userSpaceOnUse"><stop stop-color="#17C1FF"/><stop offset="1" stop-color="#17C1FF" stop-opacity=".47"/></linearGradient><linearGradient id="e" x1="-11.184" y1="16.002" x2="32.011" y2="64.002" gradientUnits="userSpaceOnUse"><stop stop-color="#17C1FF"/><stop offset="1" stop-color="#17C1FF" stop-opacity=".47"/></linearGradient><clipPath id="a"><path fill="#fff" d="M0 0h64v64H0z"/></clipPath></defs></svg>