<svg width="30" height="30" viewBox="0 0 30 30" fill="none" xmlns="http://www.w3.org/2000/svg"><path fill-rule="evenodd" clip-rule="evenodd" d="M30 15c0 8.284-6.716 15-15 15-8.284 0-15-6.716-15-15C0 6.716 6.716 0 15 0c8.284 0 15 6.716 15 15zm-14.51 8.345h.004c4.918-.002 8.918-4.002 8.92-8.92a8.865 8.865 0 0 0-2.61-6.31 8.862 8.862 0 0 0-6.31-2.615c-4.916 0-8.917 4-8.92 8.919 0 1.572.41 3.106 1.191 4.459L6.5 23.5l4.728-1.24a8.911 8.911 0 0 0 4.263 1.085z" fill="#25B8EE"/><path fill-rule="evenodd" clip-rule="evenodd" d="M11.718 20.806l-.27-.16-2.806.735.748-2.735-.176-.28a7.396 7.396 0 0 1-1.133-3.946c.001-4.088 3.327-7.413 7.416-7.413a7.36 7.36 0 0 1 5.241 2.174 7.369 7.369 0 0 1 2.17 5.245c-.002 4.088-3.328 7.413-7.414 7.413h-.003a7.402 7.402 0 0 1-3.773-1.033zm7.965-4.46c.155.075.26.126.305.2.056.094.056.54-.13 1.06-.186.521-1.076.996-1.504 1.06-.384.058-.87.082-1.404-.088-.324-.103-.739-.24-1.27-.47-2.09-.902-3.502-2.927-3.769-3.31a2.866 2.866 0 0 0-.039-.055l-.002-.002c-.117-.157-.908-1.212-.908-2.303 0-1.027.505-1.565.737-1.813l.043-.046a.819.819 0 0 1 .594-.28c.15 0 .298.002.428.009h.05c.13 0 .291-.002.451.382.062.148.151.367.246.598.192.466.404.982.441 1.057.056.112.093.242.019.39a11.29 11.29 0 0 0-.031.064c-.056.114-.097.198-.192.308a8.39 8.39 0 0 0-.114.137 4.007 4.007 0 0 1-.22.254c-.112.11-.228.231-.098.455.13.223.577.952 1.24 1.543.712.636 1.331.904 1.645 1.04.061.027.11.048.147.067.223.111.353.092.483-.056.13-.149.557-.651.706-.874.148-.223.297-.186.501-.112.204.075 1.3.614 1.523.726.043.021.084.04.122.06z" fill="#25B8EE"/></svg>