<?xml version="1.0" encoding="utf-8"?><svg xmlns="http://www.w3.org/2000/svg" xmlns:xlink="http://www.w3.org/1999/xlink"><symbol viewBox="0 0 22 22" id="account" xmlns="http://www.w3.org/2000/svg"><path fill-rule="evenodd" clip-rule="evenodd" d="M11 22C4.925 22 0 17.075 0 11S4.925 0 11 0s11 4.925 11 11-4.925 11-11 11zm7.4-5.875a9 9 0 1 0-14.799 0C4.726 14.638 7.37 14 11 14s6.274.638 7.4 2.125zm-1.435 1.615C16.672 16.687 14.569 16 11 16c-3.57 0-5.672.687-5.965 1.74A8.966 8.966 0 0 0 11 20a8.966 8.966 0 0 0 5.965-2.26zM11 14c-2.24 0-4-1.573-4-5 0-2.244 1.58-4 4-4 2.414 0 4 1.922 4 4.2 0 3.28-1.782 4.8-4 4.8zM9 9c0 2.27.818 3 2 3 1.178 0 2-.702 2-2.8 0-1.25-.784-2.2-2-2.2-1.266 0-2 .816-2 2z"/></symbol><symbol viewBox="0 0 24 24" id="arrow-left" xmlns="http://www.w3.org/2000/svg"><path fill-rule="evenodd" clip-rule="evenodd" d="M11.293 4.293a1 1 0 1 1 1.414 1.414L7.414 11H19a1 1 0 1 1 0 2H7.414l5.293 5.293a1 1 0 0 1-1.414 1.414l-7-7a1 1 0 0 1 0-1.414l7-7z"/></symbol><symbol viewBox="0 0 24 24" id="arrow-left-hover" xmlns="http://www.w3.org/2000/svg"><path fill-rule="evenodd" clip-rule="evenodd" d="M11.293 4.293a1 1 0 1 1 1.414 1.414L7.414 11H19a1 1 0 1 1 0 2H7.414l5.293 5.293a1 1 0 0 1-1.414 1.414l-7-7a1 1 0 0 1 0-1.414l7-7z"/></symbol><symbol viewBox="0 0 24 24" id="arrow-right" xmlns="http://www.w3.org/2000/svg"><path fill-rule="evenodd" clip-rule="evenodd" d="M12.707 4.293a1 1 0 1 0-1.414 1.414L16.586 11H5a1 1 0 1 0 0 2h11.586l-5.293 5.293a1 1 0 0 0 1.414 1.414l7-7a1 1 0 0 0 0-1.414l-7-7z"/></symbol><symbol viewBox="0 0 24 24" id="arrow-right-hover" xmlns="http://www.w3.org/2000/svg"><path fill-rule="evenodd" clip-rule="evenodd" d="M12.707 4.293a1 1 0 1 0-1.414 1.414L16.586 11H5a1 1 0 1 0 0 2h11.586l-5.293 5.293a1 1 0 0 0 1.414 1.414l7-7a1 1 0 0 0 0-1.414l-7-7z"/></symbol><symbol viewBox="0 0 18 10" id="chevron-down" xmlns="http://www.w3.org/2000/svg"><path fill-rule="evenodd" clip-rule="evenodd" d="M16.745.675a1.167 1.167 0 0 1 0 1.65l-7 7a1.167 1.167 0 0 1-1.65 0l-7-7a1.167 1.167 0 1 1 1.65-1.65L8.92 6.85 15.095.675a1.167 1.167 0 0 1 1.65 0z"/></symbol><symbol viewBox="0 0 9 15" id="chevron-right-black" xmlns="http://www.w3.org/2000/svg"><path fill-rule="evenodd" clip-rule="evenodd" d="M6.485 7.5L0 13.782 1.258 15 9 7.5 1.258 0 0 1.218 6.485 7.5z"/></symbol><symbol viewBox="0 0 18 10" id="chevron-up" xmlns="http://www.w3.org/2000/svg"><path fill-rule="evenodd" clip-rule="evenodd" d="M16.827 9.5a1.28 1.28 0 0 0 0-1.74l-7-7.388a1.124 1.124 0 0 0-1.65 0l-7 7.387a1.28 1.28 0 0 0 0 1.741 1.124 1.124 0 0 0 1.65 0l6.175-6.516L15.177 9.5a1.124 1.124 0 0 0 1.65 0z"/></symbol><symbol viewBox="0 0 47.971 47.971" id="close" xmlns="http://www.w3.org/2000/svg"><path d="M28.228 23.986L47.092 5.122a2.998 2.998 0 0 0 0-4.242 2.998 2.998 0 0 0-4.242 0L23.986 19.744 5.121.88a2.998 2.998 0 0 0-4.242 0 2.998 2.998 0 0 0 0 4.242l18.865 18.864L.879 42.85a2.998 2.998 0 1 0 4.242 4.241l18.865-18.864L42.85 47.091c.586.586 1.354.879 2.121.879s1.535-.293 2.121-.879a2.998 2.998 0 0 0 0-4.242L28.228 23.986z"/></symbol><symbol viewBox="0 0 21 21" id="coments" xmlns="http://www.w3.org/2000/svg"><path fill-rule="evenodd" clip-rule="evenodd" d="M4.188 20.129l6.086-3.804h7.914a2 2 0 0 0 2-2v-12a2 2 0 0 0-2-2h-16a2 2 0 0 0-2 2v12a2 2 0 0 0 2 2h2v3.804zM9.7 14.325L6.187 16.52v-2.195h-4v-12h16v12H9.701zm-4.514-3v-2h7v2h-7zm0-6v2h9v-2h-9z"/></symbol><symbol viewBox="0 0 23 17" id="eye" xmlns="http://www.w3.org/2000/svg"><path fill-rule="evenodd" clip-rule="evenodd" d="M11.187.325c2.728 0 5.336 1.43 7.766 3.78.83.803 1.58 1.659 2.24 2.515.399.517.682.924.836 1.166l.345.539-.345.539a17.49 17.49 0 0 1-.836 1.165c-.66.857-1.41 1.713-2.24 2.515-2.43 2.35-5.038 3.78-7.766 3.78-2.728 0-5.336-1.43-7.766-3.78a23.304 23.304 0 0 1-2.24-2.515 17.487 17.487 0 0 1-.836-1.165L0 8.323l.345-.538c.155-.242.437-.649.836-1.166.66-.856 1.41-1.712 2.24-2.514C5.85 1.756 8.459.325 11.187.325zm8.422 7.517a21.335 21.335 0 0 0-2.046-2.298c-2.093-2.025-4.27-3.22-6.376-3.22-2.105 0-4.282 1.195-6.376 3.22a21.327 21.327 0 0 0-2.408 2.78 21.332 21.332 0 0 0 2.408 2.781c2.094 2.025 4.271 3.22 6.376 3.22 2.105 0 4.283-1.195 6.376-3.22a21.34 21.34 0 0 0 2.408-2.78c-.11-.152-.231-.314-.362-.483zm-12.422.483a4 4 0 1 0 8 0 4 4 0 0 0-8 0zm6 0a2 2 0 1 1-4 0 2 2 0 0 1 4 0z"/></symbol><symbol viewBox="0 0 29 29" id="phone" xmlns="http://www.w3.org/2000/svg"><path fill-rule="evenodd" clip-rule="evenodd" d="M13.023 15.962c-.655-.655-1.198-1.365-1.49-1.947-.126-.254-.194-.462-.207-.597l.638-.638c.18-.179.267-.27.377-.39.768-.846 1.108-1.595.394-2.37-1.188-1.66-2.021-2.73-2.539-3.248-1.03-1.03-2.694-.841-3.535 0-.095.095-.173.172-.35.345-.178.175-.257.254-.357.354-.138.137-.258.26-.372.381-2.614 2.613-1.024 8.13 3.198 12.353 4.221 4.223 9.74 5.813 12.373 3.18l1.06-1.06c.846-.847 1.031-2.506 0-3.536-.517-.518-1.589-1.353-3.253-2.543-.574-.51-1.25-.4-1.865.003-.29.19-.498.38-.891.773l-.637.637c-.135-.012-.343-.08-.597-.208-.582-.29-1.292-.833-1.947-1.489zm3.888 3.181l.707-.707c.185-.184.312-.306.415-.393 1.44 1.036 2.373 1.767 2.766 2.16.172.171.126.58 0 .707l-1.06 1.06c-1.627 1.627-6 .366-9.544-3.18-3.545-3.546-4.806-7.917-3.18-9.543a34.955 34.955 0 0 1 .698-.703l.362-.358c.122-.122.538-.169.707 0 .393.393 1.124 1.326 2.16 2.766a8.724 8.724 0 0 1-.393.415l-.707.707c-1.249 1.249-.209 3.326 1.767 5.302 1.974 1.975 4.053 3.016 5.302 1.767z"/><path d="M20.614 12h-4.873v-.967l2.3-2.451c.316-.345.549-.646.698-.903.153-.257.23-.502.23-.733 0-.315-.08-.563-.24-.742-.159-.182-.387-.273-.683-.273-.32 0-.571.11-.757.332-.182.218-.273.506-.273.864H15.6c0-.433.102-.829.307-1.187.209-.358.502-.638.88-.84a2.647 2.647 0 0 1 1.283-.307c.733 0 1.3.176 1.704.527.407.352.61.848.61 1.49 0 .351-.09.71-.273 1.074-.182.364-.495.79-.937 1.274l-1.616 1.704h3.056V12zm5.044-2.676h.806v1.138h-.806V12h-1.41v-1.538h-2.916l-.064-.889 2.964-4.682h1.426v4.433zm-2.983 0h1.572v-2.51l-.093.162-1.48 2.348z"/></symbol><symbol viewBox="0 0 52 60" id="ribbon-no-shdw" xmlns="http://www.w3.org/2000/svg"><path fill-rule="evenodd" clip-rule="evenodd" d="M35.481 50.217C45.151 46.427 52 37.014 52 26 52 11.64 40.36 0 26 0S0 11.64 0 26c0 10.886 6.69 20.21 16.183 24.083l9.716 9.716 9.582-9.582z"/></symbol><symbol viewBox="0 0 20 20" id="search" xmlns="http://www.w3.org/2000/svg"><path fill-rule="evenodd" clip-rule="evenodd" d="M8 16a8 8 0 1 1 6.32-3.094l5.387 5.387-1.414 1.414-5.387-5.387A7.965 7.965 0 0 1 8 16zm6-8A6 6 0 1 1 2 8a6 6 0 0 1 12 0z"/></symbol></svg>