<svg width="23" height="17" viewBox="0 0 23 17" fill="none" xmlns="http://www.w3.org/2000/svg">
<path fill-rule="evenodd" clip-rule="evenodd" d="M11.187 0.324707C13.9146 0.324707 16.5227 1.75533 18.9533 4.10586C19.7825 4.90775 20.5327 5.76386 21.1931 6.62033C21.5916 7.13715 21.8746 7.5437 22.0295 7.78591L22.3741 8.32471L22.0295 8.8635C21.8746 9.10571 21.5916 9.51227 21.1931 10.0291C20.5327 10.8856 19.7825 11.7417 18.9533 12.5436C16.5227 14.8941 13.9146 16.3247 11.187 16.3247C8.45949 16.3247 5.85136 14.8941 3.42074 12.5436C2.59153 11.7417 1.84134 10.8856 1.18094 10.0291C0.782441 9.51227 0.499509 9.10571 0.3446 8.8635L0 8.32471L0.3446 7.78591C0.499509 7.5437 0.782441 7.13715 1.18094 6.62033C1.84134 5.76386 2.59153 4.90775 3.42074 4.10586C5.85136 1.75533 8.45949 0.324707 11.187 0.324707ZM19.6093 7.84158C19.0046 7.05743 18.3172 6.27291 17.563 5.54356C15.4695 3.51908 13.2921 2.32471 11.187 2.32471C9.08196 2.32471 6.90453 3.51908 4.81108 5.54356C4.05687 6.27291 3.36942 7.05743 2.76478 7.84158C2.63419 8.01094 2.51352 8.17253 2.4032 8.32471C2.51352 8.47688 2.63419 8.63847 2.76478 8.80783C3.36942 9.59199 4.05687 10.3765 4.81108 11.1059C6.90453 13.1303 9.08196 14.3247 11.187 14.3247C13.2921 14.3247 15.4695 13.1303 17.563 11.1059C18.3172 10.3765 19.0046 9.59199 19.6093 8.80783C19.7399 8.63847 19.8605 8.47688 19.9709 8.32471C19.8605 8.17253 19.7399 8.01094 19.6093 7.84158ZM7.18703 8.32471C7.18703 10.5338 8.9779 12.3247 11.187 12.3247C13.3962 12.3247 15.187 10.5338 15.187 8.32471C15.187 6.11557 13.3962 4.32471 11.187 4.32471C8.9779 4.32471 7.18703 6.11557 7.18703 8.32471ZM13.187 8.32471C13.187 9.42928 12.2916 10.3247 11.187 10.3247C10.0825 10.3247 9.18703 9.42928 9.18703 8.32471C9.18703 7.22014 10.0825 6.32471 11.187 6.32471C12.2916 6.32471 13.187 7.22014 13.187 8.32471Z" fill="#DADADA"/>
</svg>
