<svg width="106" height="104" viewBox="0 0 106 104" fill="none" xmlns="http://www.w3.org/2000/svg">
<g filter="url(#filter0_d)">
<path fill-rule="evenodd" clip-rule="evenodd" d="M52.0231 28.9624C51.3678 28.3068 50.8253 27.5971 50.5339 27.0151C50.4068 26.7612 50.3388 26.5531 50.3264 26.4179L50.9639 25.7803C51.1431 25.6011 51.2314 25.5105 51.3411 25.3897C52.1085 24.5444 52.4492 23.7948 51.7354 23.0205C50.5473 21.3592 49.7137 20.2891 49.1963 19.7717C48.1668 18.7422 46.5023 18.9309 45.6611 19.772C45.5657 19.8674 45.4881 19.944 45.3119 20.1171C45.1332 20.2925 45.0536 20.3711 44.9536 20.471C44.8163 20.6082 44.6959 20.7314 44.5815 20.8521C41.9678 23.4653 43.5583 28.9811 47.7801 33.2048C52.001 37.4275 57.5193 39.018 60.1525 36.3848L61.2132 35.3241C62.0595 34.4778 62.244 32.8194 61.2135 31.7889C60.6956 31.271 59.624 30.4363 57.96 29.2464C57.3863 28.7352 56.7094 28.8461 56.095 29.249C55.8056 29.4388 55.5972 29.6288 55.2039 30.0222L54.5673 30.6589C54.432 30.6466 54.2238 30.5786 53.9698 30.4514C53.3876 30.1601 52.678 29.6176 52.0231 28.9624ZM55.9112 32.1434L56.6183 31.4363C56.8026 31.2519 56.9302 31.1296 57.0326 31.0426C58.4727 32.0786 59.4059 32.8097 59.7993 33.2031C59.9705 33.3743 59.925 33.7839 59.799 33.9099L58.7383 34.9705C57.1121 36.5967 52.7385 35.3362 49.1947 31.7909C45.6497 28.2444 44.3891 23.8725 46.0147 22.2469C46.1342 22.1212 46.2423 22.0107 46.3675 21.8855C46.4619 21.7911 46.5388 21.7153 46.7132 21.544C46.8937 21.3667 46.9743 21.2873 47.0753 21.1862C47.1971 21.0645 47.6135 21.0173 47.7821 21.1859C48.1755 21.5793 48.9065 22.5123 49.9422 23.952C49.9176 23.9811 49.8903 24.0124 49.8603 24.0454C49.7791 24.1349 49.7062 24.2096 49.5488 24.3671L48.8418 25.074C47.5933 26.3226 48.6332 28.4001 50.6086 30.3763C52.5828 32.3514 54.6625 33.3921 55.9112 32.1434Z" fill="#7CE74F"/>
<path fill-rule="evenodd" clip-rule="evenodd" d="M52.0231 28.9624C51.3678 28.3068 50.8253 27.5971 50.5339 27.0151C50.4068 26.7612 50.3388 26.5531 50.3264 26.4179L50.9639 25.7803C51.1431 25.6011 51.2314 25.5105 51.3411 25.3897C52.1085 24.5444 52.4492 23.7948 51.7354 23.0205C50.5473 21.3592 49.7137 20.2891 49.1963 19.7717C48.1668 18.7422 46.5023 18.9309 45.6611 19.772C45.5657 19.8674 45.4881 19.944 45.3119 20.1171C45.1332 20.2925 45.0536 20.3711 44.9536 20.471C44.8163 20.6082 44.6959 20.7314 44.5815 20.8521C41.9678 23.4653 43.5583 28.9811 47.7801 33.2048C52.001 37.4275 57.5193 39.018 60.1525 36.3848L61.2132 35.3241C62.0595 34.4778 62.244 32.8194 61.2135 31.7889C60.6956 31.271 59.624 30.4363 57.96 29.2464C57.3863 28.7352 56.7094 28.8461 56.095 29.249C55.8056 29.4388 55.5972 29.6288 55.2039 30.0222L54.5673 30.6589C54.432 30.6466 54.2238 30.5786 53.9698 30.4514C53.3876 30.1601 52.678 29.6176 52.0231 28.9624ZM55.9112 32.1434L56.6183 31.4363C56.8026 31.2519 56.9302 31.1296 57.0326 31.0426C58.4727 32.0786 59.4059 32.8097 59.7993 33.2031C59.9705 33.3743 59.925 33.7839 59.799 33.9099L58.7383 34.9705C57.1121 36.5967 52.7385 35.3362 49.1947 31.7909C45.6497 28.2444 44.3891 23.8725 46.0147 22.2469C46.1342 22.1212 46.2423 22.0107 46.3675 21.8855C46.4619 21.7911 46.5388 21.7153 46.7132 21.544C46.8937 21.3667 46.9743 21.2873 47.0753 21.1862C47.1971 21.0645 47.6135 21.0173 47.7821 21.1859C48.1755 21.5793 48.9065 22.5123 49.9422 23.952C49.9176 23.9811 49.8903 24.0124 49.8603 24.0454C49.7791 24.1349 49.7062 24.2096 49.5488 24.3671L48.8418 25.074C47.5933 26.3226 48.6332 28.4001 50.6086 30.3763C52.5828 32.3514 54.6625 33.3921 55.9112 32.1434Z" fill="url(#paint0_linear)"/>
<path d="M59.6143 25H54.7412V24.0332L57.041 21.582C57.3568 21.237 57.5895 20.9359 57.7393 20.6787C57.8923 20.4215 57.9687 20.1774 57.9687 19.9463C57.9687 19.6305 57.889 19.3831 57.7295 19.2041C57.57 19.0218 57.3421 18.9307 57.0459 18.9307C56.7269 18.9307 56.4746 19.0413 56.2891 19.2627C56.1068 19.4808 56.0156 19.7689 56.0156 20.127H54.5996C54.5996 19.694 54.7021 19.2985 54.9072 18.9404C55.1156 18.5824 55.4085 18.3024 55.7861 18.1006C56.1637 17.8955 56.5918 17.793 57.0703 17.793C57.8027 17.793 58.3708 17.9687 58.7744 18.3203C59.1813 18.6719 59.3848 19.1683 59.3848 19.8096C59.3848 20.1611 59.2936 20.5192 59.1113 20.8838C58.929 21.2484 58.6165 21.6732 58.1738 22.1582L56.5576 23.8623H59.6143V25ZM64.6582 22.3242H65.4639V23.4619H64.6582V25H63.2471V23.4619H60.332L60.2686 22.5732L63.2324 17.8906H64.6582V22.3242ZM61.6748 22.3242H63.2471V19.8145L63.1543 19.9756L61.6748 22.3242Z" fill="#7CE74F"/>
<path d="M59.6143 25H54.7412V24.0332L57.041 21.582C57.3568 21.237 57.5895 20.9359 57.7393 20.6787C57.8923 20.4215 57.9687 20.1774 57.9687 19.9463C57.9687 19.6305 57.889 19.3831 57.7295 19.2041C57.57 19.0218 57.3421 18.9307 57.0459 18.9307C56.7269 18.9307 56.4746 19.0413 56.2891 19.2627C56.1068 19.4808 56.0156 19.7689 56.0156 20.127H54.5996C54.5996 19.694 54.7021 19.2985 54.9072 18.9404C55.1156 18.5824 55.4085 18.3024 55.7861 18.1006C56.1637 17.8955 56.5918 17.793 57.0703 17.793C57.8027 17.793 58.3708 17.9687 58.7744 18.3203C59.1813 18.6719 59.3848 19.1683 59.3848 19.8096C59.3848 20.1611 59.2936 20.5192 59.1113 20.8838C58.929 21.2484 58.6165 21.6732 58.1738 22.1582L56.5576 23.8623H59.6143V25ZM64.6582 22.3242H65.4639V23.4619H64.6582V25H63.2471V23.4619H60.332L60.2686 22.5732L63.2324 17.8906H64.6582V22.3242ZM61.6748 22.3242H63.2471V19.8145L63.1543 19.9756L61.6748 22.3242Z" fill="url(#paint1_linear)"/>
</g>
<defs>
<filter id="filter0_d" x="0" y="0.792969" width="105.464" height="103.188" filterUnits="userSpaceOnUse" color-interpolation-filters="sRGB">
<feFlood flood-opacity="0" result="BackgroundImageFix"/>
<feColorMatrix in="SourceAlpha" type="matrix" values="0 0 0 0 0 0 0 0 0 0 0 0 0 0 0 0 0 0 127 0"/>
<feOffset dy="23"/>
<feGaussianBlur stdDeviation="20"/>
<feColorMatrix type="matrix" values="0 0 0 0 0.144254 0 0 0 0 0.722406 0 0 0 0 0.932178 0 0 0 0.34 0"/>
<feBlend mode="normal" in2="BackgroundImageFix" result="effect1_dropShadow"/>
<feBlend mode="normal" in="SourceGraphic" in2="effect1_dropShadow" result="shape"/>
</filter>
<linearGradient id="paint0_linear" x1="60.1312" y1="41.8432" x2="64.9852" y2="29.6805" gradientUnits="userSpaceOnUse">
<stop stop-color="#17C1FF"/>
<stop offset="1" stop-color="#17C1FF" stop-opacity="0.47"/>
</linearGradient>
<linearGradient id="paint1_linear" x1="51.9029" y1="19.0002" x2="60.002" y2="28.0001" gradientUnits="userSpaceOnUse">
<stop stop-color="#17C1FF"/>
<stop offset="1" stop-color="#17C1FF" stop-opacity="0.47"/>
</linearGradient>
</defs>
</svg>
