<svg width="29" height="29" viewBox="0 0 29 29" fill="none" xmlns="http://www.w3.org/2000/svg">
<path fill-rule="evenodd" clip-rule="evenodd" d="M13.0231 15.9624C12.3678 15.3068 11.8253 14.5971 11.5339 14.0151C11.4068 13.7612 11.3388 13.5531 11.3264 13.4179L11.9639 12.7803C12.1431 12.6011 12.2314 12.5105 12.3411 12.3897C13.1085 11.5444 13.4492 10.7948 12.7354 10.0205C11.5473 8.35922 10.7137 7.28911 10.1963 6.7717C9.16683 5.74221 7.50226 5.93087 6.66111 6.77202C6.56575 6.86739 6.48808 6.94401 6.31185 7.11707C6.13325 7.29247 6.05357 7.37106 5.95359 7.471C5.81635 7.60819 5.69586 7.7314 5.58151 7.85215C2.96781 10.4653 4.5583 15.9811 8.78014 20.2048C13.001 24.4275 18.5193 26.018 21.1525 23.3848L22.2132 22.3241C23.0595 21.4778 23.244 19.8194 22.2135 18.7889C21.6956 18.271 20.624 17.4363 18.96 16.2464C18.3863 15.7352 17.7094 15.8461 17.095 16.249C16.8056 16.4388 16.5972 16.6288 16.2039 17.0222L15.5673 17.6589C15.432 17.6466 15.2238 17.5786 14.9698 17.4514C14.3876 17.1601 13.678 16.6176 13.0231 15.9624ZM16.9112 19.1434L17.6183 18.4363C17.8026 18.2519 17.9302 18.1296 18.0326 18.0426C19.4727 19.0786 20.4059 19.8097 20.7993 20.2031C20.9705 20.3743 20.925 20.7839 20.799 20.9099L19.7383 21.9705C18.1121 23.5967 13.7385 22.3362 10.1947 18.7909C6.64975 15.2444 5.38909 10.8725 7.01466 9.2469C7.13421 9.12121 7.24232 9.01065 7.36754 8.88549C7.46194 8.79111 7.53881 8.71529 7.7132 8.54403C7.89373 8.36674 7.97427 8.28729 8.07532 8.18624C8.19711 8.06445 8.61346 8.01726 8.78211 8.18592C9.17547 8.57927 9.90646 9.51229 10.9422 10.952C10.9176 10.9811 10.8903 11.0124 10.8603 11.0454C10.7791 11.1349 10.7062 11.2096 10.5488 11.3671L9.84181 12.074C8.59326 13.3226 9.63321 15.4001 11.6086 17.3763C13.5828 19.3514 15.6625 20.3921 16.9112 19.1434Z" fill="white"/>
<path d="M20.6142 12H15.7412V11.0332L18.041 8.58203C18.3568 8.23698 18.5895 7.93587 18.7392 7.67871C18.8922 7.42155 18.9687 7.17741 18.9687 6.94629C18.9687 6.63053 18.889 6.38314 18.7295 6.2041C18.57 6.02181 18.3421 5.93066 18.0459 5.93066C17.7269 5.93066 17.4746 6.04134 17.289 6.2627C17.1068 6.48079 17.0156 6.76888 17.0156 7.12695H15.5996C15.5996 6.69401 15.7021 6.2985 15.9072 5.94043C16.1155 5.58236 16.4085 5.30241 16.7861 5.10059C17.1637 4.89551 17.5918 4.79297 18.0703 4.79297C18.8027 4.79297 19.3708 4.96875 19.7744 5.32031C20.1813 5.67187 20.3848 6.16829 20.3848 6.80957C20.3848 7.16113 20.2936 7.51921 20.1113 7.88379C19.929 8.24837 19.6165 8.67318 19.1738 9.1582L17.5576 10.8623H20.6142V12ZM25.6582 9.32422H26.4639V10.4619H25.6582V12H24.2471V10.4619H21.332L21.2685 9.57324L24.2324 4.89062H25.6582V9.32422ZM22.6748 9.32422H24.2471V6.81445L24.1543 6.97559L22.6748 9.32422Z" fill="white"/>
</svg>
